<svg xmlns="http://www.w3.org/2000/svg" viewBox="0 0 512 512">
  <path d="M218.5 12.3c-22.8 7.6-42.1 33.5-51.5 69.2-4.1 15.3-5.2 25.7-4.8 43.7l.3 15.6-5-2c-25.3-10.2-50-14.1-73.6-11.9-20.3 1.9-34.4 6.3-47 14.7-18 11.9-23.3 26.8-15.5 43.1 1.9 3.9 3.9 7.4 4.5 7.7 2.2 1.4 1 3.3-2.7 4.4-6.4 2-14.1 7.1-17.2 11.4-8.1 11.1-7.9 24.9.5 42.3 14.4 29.9 53.3 57.8 92.7 66.5l5.6 1.3-6.1 7.6c-13.3 16.7-22 32.7-28.1 51.1-12.8 39.4-6.5 76.3 14.9 87.2 5.4 2.8 14.5 3.4 22.1 1.4 3.4-.9 6.5-1.6 6.8-1.6s.6 1.9.6 4.2c.1 15.5 7.7 26.7 21.3 31.5 8.1 2.8 24.7 2.3 36-1.1 28.2-8.4 56.7-30.4 74.2-57.1 4.3-6.6 8.2-12.4 8.5-12.8.4-.5 2.2 1.6 4.1 4.5 20 31.8 50.1 56.3 80.4 65.4 11.6 3.4 28 3.9 36.2 1.1 13.6-4.8 21.2-16 21.3-31.5 0-2.3.3-4.2.6-4.2s3.4.7 6.8 1.6c7.6 2 16.7 1.4 22.2-1.4 23-11.7 28.1-53.3 11.9-95.4-6-15.6-15.2-30.8-28.2-46.6l-3.3-4 8.7-2.1c39.9-10.1 75.5-36 89.8-65.6 8.4-17.4 8.6-31.2.5-42.3-3.1-4.3-10.8-9.4-17.2-11.4-4.4-1.3-4.6-1.9-1.8-5.8 12.6-17.7 7.8-37.1-12.4-49.9-30.9-19.5-81.1-19.7-124.2-.5-.8.3-.9-4-.6-14.8.5-17.7-.7-28.7-4.8-44.3-8.6-32.4-25.7-57.4-45.8-66.8-14.8-6.9-29-3.5-39 9.4-2 2.6-3.9 4.8-4.2 4.8s-2.6-2.6-5.1-5.7c-6.1-7.6-13-11.4-21.8-11.8-3.8-.2-8.3.2-10.6.9m45.6 144c6.2 4.1 6.9 6.9 6.9 27.5 0 13.2-.4 19.1-1.4 21.5-3.9 9.2-15.1 11.8-23.1 5.5-4.8-3.8-5.5-7-5.5-27 0-15.4.3-18.8 1.8-21.8 2.5-5 7.5-8 13.2-8 3.2 0 5.8.7 8.1 2.3M238.5 222c3.1 1.5 5.8 4.3 10.6 11 3.5 4.9 6.6 9 6.9 9s3.4-4.1 6.9-9c7.6-10.6 12.3-13.6 19.2-12.5 5.2.9 10.5 5.6 12 10.6 1.7 5.5.2 9.8-7.1 19.7-3.3 4.5-6 8.6-6 9s3.5 1.8 7.8 3.1c15.8 4.6 20.2 8.4 20.2 17.7 0 8.8-5.7 14.6-14.4 14.5-2.2 0-8.1-1.4-13-3-5-1.7-9.3-3.1-9.7-3.1s-.9 5.6-1.1 12.4c-.3 10.8-.6 12.8-2.4 15.3-6.5 8.6-18.3 8.6-24.8 0-1.8-2.5-2.1-4.5-2.4-15.3-.2-6.8-.7-12.4-1.1-12.4s-4.7 1.4-9.7 3.1c-10.1 3.4-15.7 3.8-20.3 1.4-9.3-4.8-9.6-20.3-.4-25.6 1.5-.9 7-2.9 12.1-4.5 5-1.5 9.2-3.1 9.2-3.6 0-.4-2.7-4.4-6-8.9-3.2-4.5-6.4-9.7-7.1-11.6-2.9-9 4.4-18.7 14.5-19.2 1.1-.1 3.8.8 6.1 1.9m-57.1 6.2c17.8 5.8 21.9 8.3 23.6 14.9 2.5 9.1-4.9 18.9-14.2 18.9-3.7 0-36.4-10.9-39.1-13-3.5-2.8-6.1-10-5.3-14.5.9-4.7 5.1-9.2 10.1-11 4.8-1.7 4.7-1.7 24.9 4.7m177-3.4c7 4.1 9.2 11.8 5.4 19.2-1.3 2.4-3.6 5.2-5.3 6.1-1.6 1-10.5 4.1-19.6 7-18.7 5.9-21.5 5.9-27.4.8-4.5-4-6.1-9-4.6-14.6s6.5-9.7 14.8-12.2c3.8-1.2 11.5-3.7 17.3-5.6 11.1-3.6 14-3.7 19.4-.7m-135.8 85.8c6.1 2.9 9.3 10.7 7.1 17.2-1.7 5-20.8 31.4-24.3 33.7-10.7 7-24.5-2.4-22.6-15.3.6-4.3 20.4-31.7 25.1-34.9 4-2.7 9.8-3 14.7-.7m81.5.7c4.7 3.2 24.5 30.6 25.1 34.9 1.9 12.9-11.9 22.3-22.6 15.3-3.6-2.4-22.6-28.7-24.3-33.7-1.5-4.4-.6-9.7 2.5-13.5 4.4-5.5 13.4-7 19.3-3"/>
</svg>