<svg xmlns="http://www.w3.org/2000/svg" viewBox="0 0 512 512">
  <path d="M251.4 33.5c-1.5 1-6.9 14.1-17.9 43.5-8.7 23.1-16.2 42-16.8 42-.5 0-12.4-5.2-26.3-11.5-14-6.3-26.1-11.5-27-11.5-2.1 0-7.4 5.4-7.4 7.7 0 1.5 27.1 118.8 28.5 123.3.3.8-12.2-11.4-27.7-27.3-27-27.4-28.5-28.8-32-28.7-2.6 0-4.2.7-5.5 2.3-1 1.3-5 10.3-8.8 20-3.9 9.7-7.5 17.7-8 17.7-.6 0-13.1-3.6-27.8-8-28.5-8.4-29.8-8.6-33.1-3.8-.9 1.2-1.6 3.1-1.6 4.2 0 1 5.5 14.5 12.2 29.9 11.7 26.8 12.1 28.1 10.2 29.3-11.8 7.9-28.1 20.4-29.3 22.5-.8 1.5-1.1 3.6-.8 5.2.5 1.8 15.1 14.7 51.4 45.4 27.9 23.5 51.8 43.7 53.2 44.9l2.3 2-4.1 17.7c-4.4 18.9-4.7 21.7-3 24.8 2.3 4.4 3.8 4.3 52.2-4.6 25.4-4.7 46.5-8.5 46.9-8.5s.8 14.2.8 31.5v31.6l2.5 2.4c3.2 3.3 7.8 3.3 11 0l2.5-2.4V363.4l-46.5-29.8c-25.6-16.4-47.2-30.8-48-31.9-2.1-3-1.9-6 .6-9.1 4.3-5.5 5.3-5.1 50.7 24.2 22.8 14.7 41.9 26.8 42.4 27 .4.2.8-25.3.8-56.7 0-40.2.3-57.7 1.1-59.5 2.6-5.5 11.2-5.5 13.8 0 .8 1.8 1.1 19.2 1.1 59.4 0 31.4.2 57 .5 57 .2 0 19.3-12.2 42.4-27 45.7-29.5 46.7-29.9 51-24.4 2.5 3.1 2.7 6.1.6 9.1-.8 1.1-22.4 15.5-48 31.9L264 363.5v22.7c0 12.6.4 22.8.9 22.8s25.2 4.5 55 10c56.6 10.4 57.7 10.5 60 6.1 1.7-3.1 1.4-5.9-3-24.7-4-17.1-4.1-17.7-2.3-19.4 1.1-.9 24.9-21.1 53-44.8s51.4-43.8 51.8-44.7c2-5.4-.2-8-16.6-19.6-7.3-5-13.7-9.6-14.2-10s4.5-13.1 11.3-28.7c6.6-15.4 12.1-28.8 12.1-29.8 0-1.1-.7-3-1.6-4.2-3.3-4.8-4.6-4.6-33.1 3.8-14.7 4.4-27.2 8-27.8 8-.5 0-4.1-8-8-17.7-3.8-9.7-7.8-18.7-8.8-20-1.3-1.6-2.9-2.3-5.5-2.3-3.5-.1-5 1.3-32 28.7-15.5 15.9-28 28.1-27.8 27.3 3.2-10.3 28.6-122.8 28.2-124.5-.8-3-3.1-5.3-6-6.1-1.7-.4-9.7 2.8-27.7 11-13.9 6.4-25.8 11.6-26.5 11.6-.6 0-8.2-18.9-16.9-42-16.3-43.5-17.1-45-22.5-45-1.4 0-3.5.7-4.6 1.5"/>
</svg>