<svg xmlns="http://www.w3.org/2000/svg" viewBox="0 0 1220 1280">
  <path d="M499.5 43.4c-16.5 23.9-30 43.9-30 44.6 0 .6 19.4 13.6 43 28.9l43 27.7.3 30.7.2 30.8-4.2-2.5c-17.8-10.2-83-46.6-83.7-46.6-1.4 0-57.4 91.2-56.3 91.9.6.3 21.5 12.7 46.5 27.6l45.4 27-.5 20c-.2 11-.7 25.6-1 32.4l-.7 12.5-17.5 9.3c-9.6 5.2-22.3 11.9-28.1 15l-10.5 5.6-29-15.3c-15.9-8.4-29.1-15.5-29.3-15.6-.2-.2 1.1-25.4 2.8-56 1.7-30.7 2.9-55.9 2.7-56.1-.4-.5-5.3-1-70-8.3-24.7-2.8-45-5-45.1-4.8s-.7 27-1.3 59.7c-.6 32.6-1.3 59.5-1.5 59.8-.5.5-52.5-27.4-54.5-29.1-.9-.9-1.9-16.5-3.8-58.6-1.4-31.6-2.7-58-2.8-58.5-.3-.9-107.1 3.6-108 4.6-.2.2.3 7.6 1 16.4 5.6 64.8 7.5 87.2 8 95l.7 9-49.4 22.9c-27.2 12.6-49.8 23.2-50.3 23.7-.4.4 9.7 23 22.5 50.3l23.3 49.5 21.1-10.8c11.5-6 32.5-16.7 46.5-23.9l25.5-13 25.8 14.8c14.2 8.1 26 15 26.3 15.3.3.2-19.1 12.1-43 26.2l-43.5 25.8 6.7 12.6c33.4 62.8 43.8 82.1 44.6 82.1.4 0 21.8-11.7 47.3-26.1 25.6-14.3 47.1-25.8 47.7-25.5s13 7.8 27.6 16.8l26.5 16.3-.3 29c-.2 16-.5 30.4-.8 32-.5 2.7-3.4 4.8-29 20.7L262 696.9l-5.8-3.8c-31.9-21.2-87.6-57.1-88.3-56.9-1 .4-69.2 92.8-68.8 93.2.2.2 23.5 14.1 51.8 31.1 35.3 21.1 50.9 31 50 31.6-.8.4-13 7.9-27.2 16.7l-25.8 15.9-52.1-27c-28.6-14.8-52.3-26.5-52.8-26.1-.4.5-10.3 19.4-21.9 42.1L-.1 854.8l.3 7.7.3 7.7 51.2 24c48.7 22.9 51.3 24.2 51.2 26.7 0 1.4-2.1 26.3-4.7 55.3l-4.8 52.8 3.1.5c6.3 1 105.5 8.8 106 8.3s1.5-17.2 3.4-56.8c.6-11.3 1.3-26.4 1.7-33.7l.6-13.1 26-15.2c14.3-8.3 26.2-15 26.4-14.8s.7 22.9 1 50.5l.7 50 13.1.6c29.8 1.4 93.6 3 94.3 2.3.4-.3 1-24.5 1.3-53.7.4-29.9 1.1-53.3 1.6-53.8s13.1-7.7 28.1-16l27.2-15.1 21.8 13.1c12 7.3 24.3 14.9 27.4 17l5.6 3.8.6 12.8c.4 7 1 22.1 1.3 33.4l.7 20.6-49.9 25.2c-27.4 13.9-50 25.4-50.1 25.5-.3.2 45.6 105.8 46.2 106.4.2.2 23.9-12.7 52.7-28.7l52.3-29.1.6 9.2c.4 5.1.9 19.4 1.3 31.8l.6 22.5-49.4 31.5c-31.4 20-49.4 32-49.1 32.8.3.7 12.3 19.7 26.7 42.2l26.3 40.9 7.7.1h7.6l34.9-24.3c19.1-13.3 39.1-27.3 44.4-31l9.6-6.6 44.2 30.9c26.2 18.4 45.1 31 46.4 31 1.8-.1 8.4-9 32.2-43.4 16.5-23.9 30-43.9 30-44.6 0-.6-19.3-13.6-43-28.9l-43-27.7-.3-30.7-.2-30.8 4.2 2.5c17.8 10.2 83 46.6 83.7 46.6.8 0 57.5-91 56.9-91.4-.1-.2-19.9-11.9-43.8-26.1s-44.6-26.6-46-27.5l-2.5-1.8 1.3-32.3c.8-17.8 1.4-32.4 1.5-32.5s12.4-6.9 27.4-15.1l27.1-15 28.9 15.3c15.8 8.5 29.2 15.5 29.7 15.7.4.1-.6 25.4-2.3 56.2-1.7 30.7-2.9 56-2.7 56.2.4.5 5.3 1 70 8.3 24.7 2.8 45 5 45.1 4.8s.7-27 1.3-59.7c.6-32.6 1.3-59.5 1.5-59.8.5-.5 52.5 27.4 54.5 29.1.9.9 1.9 16.5 3.8 58.6 1.4 31.6 2.7 58 2.8 58.5.3.9 107.1-3.6 108-4.6.2-.2-.3-7.6-1-16.4-5.6-64.8-7.5-87.2-8-95l-.7-9 49.4-22.9c27.2-12.6 49.8-23.2 50.3-23.7.4-.4-9.7-23-22.5-50.3l-23.3-49.5-21.1 10.8c-11.5 6-32.5 16.7-46.5 23.9l-25.5 13-25.8-14.8c-14.2-8.1-26-15-26.3-15.3-.3-.2 19.1-12.1 43-26.2l43.5-25.8-6.7-12.6c-33.4-62.8-43.8-82.1-44.6-82.1-.4 0-21.7 11.7-47.3 26l-46.5 26.1-6.7-4c-3.6-2.3-16-10-27.6-17.4l-21-13.2.3-24.5c.1-13.5.5-27.7.8-31.5l.6-7.1 28.4-17.6 28.4-17.7 5.8 3.8c31.9 21.2 87.6 57.1 88.3 56.9 1-.4 69.2-92.8 68.8-93.2-.2-.2-23.5-14.1-51.8-31.1-35.3-21.1-50.9-31-50-31.6.8-.4 13-7.9 27.2-16.7l25.8-15.9 52.1 27c28.6 14.8 52.3 26.5 52.8 26.1.4-.5 10.3-19.4 21.9-42.1l21.2-41.1-.3-7.7-.3-7.7-51.2-24c-48.7-22.9-51.3-24.2-51.2-26.7 0-1.4 2.1-26.3 4.7-55.3l4.8-52.8-3.1-.5c-6.3-1-105.5-8.8-106-8.3s-1.5 17.2-3.4 56.8c-.6 11.3-1.3 26.4-1.7 33.7l-.6 13.1-26 15.2c-14.3 8.3-26.2 15-26.4 14.8s-.7-22.9-1-50.5l-.7-50-13.1-.6c-29.9-1.4-93.6-3-94.3-2.3-.4.4-1 24.5-1.3 53.6-.4 29.1-.8 53.1-1.1 53.3-1.1 1-59 28.7-59.9 28.7-1.3 0-9.7-5.2-32.1-19.8L737.3 376l-.6-11.8c-.4-6.4-1-21.2-1.3-32.8l-.7-21.1 49.9-25.3c27.4-13.8 50-25.3 50.1-25.4.3-.2-45.6-105.8-46.2-106.4-.2-.2-23.9 12.7-52.7 28.7L683.5 211l-.6-9.2c-.4-5.1-.9-19.4-1.3-31.8l-.6-22.5 49.4-31.5c32.3-20.6 49.4-32 49.1-32.8S767.2 63.5 752.8 41L726.5.1l-7.7-.1h-7.6l-34.9 24.3c-19.1 13.3-39.1 27.3-44.4 31l-9.6 6.6L578.1 31C551.9 12.6 533 0 531.7 0c-1.8.1-8.4 9-32.2 43.4"/>
</svg>