<svg xmlns="http://www.w3.org/2000/svg" viewBox="0 0 512 512">
  <path d="M249.8 44.9c-1.3 1.1-6.7 8.9-11.9 17.3-5.9 9.5-11.5 17.4-15 20.8-9.4 9.3-21.1 14-35 14-8.9 0-13.9-1.4-31.9-8.7-18.3-7.6-19.2-7.8-23.6-5.7-6.1 2.9-6.5 5.2-5 26.7 1.8 26.5.1 35.5-9 47.6-8.8 11.7-16.4 15.7-41.8 22.2-21.7 5.5-23.6 6.6-23.6 14.2 0 4 .8 5.3 11.7 18.2 6.4 7.7 12.9 16 14.5 18.5 9.3 14.6 9.3 37.4 0 52-1.6 2.5-8.1 10.8-14.5 18.5C53.8 313.4 53 314.7 53 318.7c0 7.6 1.9 8.7 23.5 14.2 10.5 2.7 21.3 6 24.1 7.4 12.3 6.2 21.5 16.9 25.5 29.6 2.4 7.5 2.6 18.4.9 38.9-1.2 14.6-.3 17.9 5.4 20.6 4.4 2.1 5.3 1.9 23.6-5.7 18-7.3 23-8.7 31.9-8.7 13.9 0 25.6 4.7 35 14 3.5 3.4 9.1 11.3 15 20.8 5.2 8.4 10.6 16.2 11.9 17.3 3.2 2.5 9.2 2.5 12.4 0 1.3-1.1 6.7-8.9 11.9-17.3 5.9-9.5 11.5-17.4 15-20.8 9.4-9.3 21.1-14 35-14 8.9 0 13.9 1.4 31.9 8.7 18.3 7.6 19.2 7.8 23.6 5.7 5.7-2.7 6.6-6 5.4-20.6-1.7-20.5-1.5-31.4.9-38.9 4-12.7 13.2-23.4 25.5-29.6 2.8-1.4 13.6-4.7 24.1-7.4 21.6-5.5 23.5-6.6 23.5-14.2 0-4-.8-5.3-11.7-18.2-6.4-7.7-12.9-16-14.5-18.5-9.3-14.6-9.3-37.4 0-52 1.6-2.5 8.1-10.8 14.5-18.5 10.9-12.9 11.7-14.2 11.7-18.2 0-7.6-1.9-8.7-23.5-14.2-10.5-2.7-21.3-6-24.1-7.4-12.3-6.2-21.5-16.9-25.5-29.6-2.4-7.5-2.6-18.4-.9-38.9 1.2-14.6.3-17.9-5.4-20.6-4.4-2.1-5.3-1.9-23.6 5.7-18 7.3-23 8.7-31.9 8.7-13.9 0-25.6-4.7-35-14-3.5-3.4-9.1-11.3-15-20.8-5.2-8.4-10.6-16.2-11.9-17.3-1.4-1.1-4-1.9-6.2-1.9s-4.8.8-6.2 1.9m33.2 86c25.2 5.7 44.6 16.5 63.1 35 18.8 18.8 29.9 39.2 35.5 65.1 2.6 11.9 2.6 38.1 0 50-5.6 25.9-16.7 46.3-35.5 65.1S307 376 281 381.6c-12.6 2.7-39.2 2.5-51.6-.4-26.2-6.2-44.9-16.5-63.5-35.1-18.8-18.8-29.9-39.2-35.5-65.1-2.6-11.9-2.6-38.1 0-50 5.6-25.9 16.7-46.3 35.5-65.1 14.7-14.7 28.7-23.7 47-30.3 7.6-2.7 21.5-6.1 28.6-6.9 8.7-1 33 .3 41.5 2.2"/>
  <path d="M243.5 150c-16 2.1-33.6 8.6-47.2 17.7-7.2 4.8-19.2 16-24.8 23.3-20.2 26.4-26.8 59.8-18.5 92.5 2.6 10.1 11.3 28 17.8 36.5 26.3 34.6 70.7 50 112.4 39 43.1-11.3 73.9-47.8 78.9-93.3 2.5-22.7-4.2-48.9-17.8-69.4-7.8-11.8-21.9-25-34.8-32.4-19.3-11.2-44.8-16.6-66-13.9"/>
</svg>